<svg id="wk-icon__srs-apprentice1" viewBox="0 0 390 512" xmlns="http://www.w3.org/2000/svg">
      <path d="M257.4,221.5c-3.5-3.7-5.4-8.1-5.3-12.3.2-5.2,3-10.8,7.2-14.6,3.2-2.9,6.8-4.4,10.2-4.2h0c12,.6,18.1,6.3,18.9,17.3v.2s0,.2,0,.2c0,9.3-9.5,19.6-18,19.6h0c-4.5,0-9.3-2.2-13-6.1ZM368.5,291.3c-.1,5.7-.5,11.4-.8,17-.4,6.4-.8,12.9-.8,19.3,0,11.4-2.3,22.4-4.5,33l-.7,3.6c-1.4,7.1-3.9,13.9-6.3,20.5-.5,1.5-1.1,3-1.6,4.5-2.5,7.2-5.3,14.9-8.7,22.4l-.2.5c-5.7,12.8-11.7,25.9-21.9,36.7-1.2,1.2-2.3,2.5-3.5,3.7-6.3,6.7-12.9,13.6-20.3,19.4h-.1c-8.8,7-18,14.1-29.5,18-1.2.4-2.6,1.3-4,2.2-1.4.9-3.1,2-4.9,2.7-2.8,1.2-5.6,2.2-8.3,3.2-3,1.1-5.8,2.1-8.5,3.3-6,2.7-12.4,4.5-18.8,5.4-3.8.6-7.6,1.2-11.4,1.9-3.6.6-7.4,1.3-11.1,1.9-7.5,1.1-15.2,1.7-22.9,1.7s-8.1-.2-12.2-.5c-12.5-.9-25-2.8-36.6-4.8-6.7-1.1-13.2-2.9-19.6-5.4-3.3-1.3-6.4-3-9.4-4.6-3.4-1.8-6.7-3.6-10-4.6-6.6-2.2-11.9-5.8-17.1-9.3-2.1-1.4-4-2.7-6-3.9-3.9-2.4-7.3-5.4-10.6-8.3-1.4-1.2-2.7-2.4-4.1-3.6-.9-.8-1.9-1.5-3-2.3-2.6-2-5.2-4-7.5-6.6-3.7-4.3-7.2-9.2-10.4-14.5-3.2-5.4-6.2-11-9-16.5-1.5-2.8-2.9-5.5-4.4-8.3-7.6-13.8-10-28.8-12.4-43.4-.7-4.1-1.4-8.4-2.2-12.6-1.2-6.2-1.4-12.5-1.6-18.6,0-2.5-.2-5-.3-7.5-.1-2.3-.3-4.6-.4-6.9-.4-7-.9-14.3-1.1-21.5-.1-5.6.2-11.2.6-16.6,0-1.3.2-2.6.2-3.9.1-2,.2-3.9.3-5.9.4-7.4.8-15.1,1.6-22.7,1.7-16.9,3.5-31.8,5.4-45.6.8-5.8,2.2-11.5,3.5-17,.4-1.5.7-3,1.1-4.5,1.9-7.9,3.9-16.1,6.2-25.2.4-1.5,1-2.8,1.5-4,.3-.8.7-1.5.9-2.2,1.1-3.4,2.1-6.9,3.1-10.3,2.1-7,4.2-14.3,6.8-21.4,1.4-3.8,3.3-7.2,5.1-10.6,1.4-2.6,2.8-5.1,3.8-7.6,3.7-8.8,8.7-16.7,13.5-24.3,1.7-2.6,3.4-5.4,5-8,1.2-2,2.7-3.5,4.1-4.8.8-.8,1.5-1.5,2.1-2.2,1.6-2,3.2-4.1,4.7-6.1,2.5-3.4,5.2-6.8,8-10.1,2.6-2.9,5.4-5.5,8.1-7.9,1.1-1,2.2-1.9,3.2-2.9,1.8-1.6,3.5-3.4,5.2-5.1,4.2-4.2,8.6-8.5,13.6-12,.7-.5,1.5-1,2.2-1.6,5.8-4.1,11.8-8.3,19.2-10.8,2.9-1,5.7-2.8,8.7-4.6,1.5-.9,3.1-1.9,4.8-2.8C155.4,2.2,167-.5,180,.1c10.9-1,23,.5,35.8,4.5,11,3.4,20,7.8,27.3,13.5,1.5,1.1,3,2.3,4.5,3.4,5.8,4.4,11.7,8.9,17.1,14.1,5.6,5.4,10.8,11.3,15.8,17,2.3,2.6,4.7,5.3,7,7.8.8.9,1.6,1.7,2.5,2.6,1.7,1.7,3.5,3.5,5.1,5.6,3.2,4.4,7.4,10.2,11.1,16.5l2.1,3.7c7.4,12.5,15,25.5,21.9,38.7,2.6,4.9,4.5,10.1,6.4,15.2,1.3,3.5,2.6,6.9,4,10.1,7.6,17,12.3,34.5,15.6,47.8,3.3,13.6,5.7,27.7,7.7,40.8,1.2,7.6,1.8,15.3,2.5,22.7.2,2.6.4,5.2.7,7.8.1,1.5.3,3.1.5,4.6.5,4.8,1.1,9.9,1,14.9ZM335.1,285.2c-.1-1.4-.3-2.8-.3-4.3-.1-2.4-.2-4.7-.2-7-.1-4.6-.2-8.9-.7-13.2-1.4-11.3-3.4-22.8-5.2-32.7-1.2-6.6-2.7-14.4-4.9-22.1-1.9-6.7-4-13.4-6.1-20-1-3.3-2.1-6.5-3.1-9.8-2.7-8.8-6.6-20.4-12.3-31.4-1.5-2.9-2.9-5.7-4.4-8.6-4-7.9-8.2-16-12.6-23.8-3-5.2-6.5-10.1-10.2-15.3-1.5-2.1-3-4.2-4.5-6.4-1-1.4-2.1-2.9-3.7-4.8-1.1-1.4-2.2-2.8-3.3-4.2-2.5-3.2-4.8-6.3-7.5-8.9-6.3-6.1-13.1-12-19.6-17.7-2-1.8-4-3.5-6.1-5.3-.6-.5-1.1-1-1.7-1.5-1.7-1.6-3.3-3.1-4.9-3.9-6.6-3.3-13.8-6.6-21.6-8.9-10-2.9-20.4-3.1-32.7-.5-10.3,2.2-19.4,7.6-29,13.4-1.1.6-2.1,1.3-3.2,1.9-3.9,2.3-7.4,5.5-11.2,8.8-2,1.8-4,3.6-6.1,5.3-9.4,7.6-18.1,17.1-26.7,29.1-.9,1.2-1.7,2.4-2.6,3.6-.8,1.1-1.5,2.1-2.3,3.2-1,1.4-2,2.7-3,4.1-2.3,3-4.4,5.8-6,8.8-2.2,4-4,8.1-5.9,12.5-1,2.3-2,4.7-3.1,7-1.1,2.3-2.2,4.6-3.3,6.8-2.1,4.2-4.1,8.2-5.6,12.3-3.7,9.9-6.9,20.3-10,30.4l-.5,1.6c-.6,1.8-.9,3.8-1.2,5.9-.3,1.5-.5,3.1-.9,4.8-.5,2.2-1.1,4.3-1.6,6.4-.9,3.4-1.7,6.6-2.3,9.8-1.1,6.3-1.9,12.7-2.7,18.9-.3,2.1-.5,4.3-.8,6.4-.2,1.7-.5,3.4-.7,5.2-.7,5.2-1.4,10.6-1.9,15.9-1.3,13.8-2.3,26.2-3.1,37.9-.5,7.5-.7,14.9-.8,22.6,0,6.2,0,12.6,0,18.2,0,2.2,0,4.3,0,6.3.6,3.7,1,7.2,1.5,10.6,1,7.5,2,14.6,3.6,21.4,1.4,6.1,3.7,12.1,6,18.3.9,2.3,1.7,4.6,2.6,7,.9,2.4,2,4.9,3.3,7.5.9,1.8,1.8,3.6,2.6,5.3,2.2,4.6,4.4,9,7.2,12.8,4.3,5.8,9.7,11.8,16.9,18.8,3.8,3.7,8.2,6.8,12.9,10.1.8.6,1.7,1.2,2.5,1.8,2.1,1.5,4.4,2.7,6.9,4,.5.3,1.1.6,1.6.8.7.4,1.4.7,2.1,1.1,3.2,1.7,6.2,3.3,9.4,4.6,2,.8,4.1,1.4,6.4,2.1,1.6.5,3.3,1,5,1.5,1.4.5,2.7,1.1,4,1.6,1.6.7,3.1,1.4,4.5,1.7,8.8,2,17.8,3.6,25.4,5,3.9.7,8.1,1.4,12.1,1.5,5.3.1,10.6-.2,16-.6,1.4-.1,2.8-.2,4.3-.3,5-.3,9.8-.6,14.3-1.6,10.4-2.3,22.6-5.2,34.7-9.2,7.4-2.4,14.4-6.3,20.3-9.8,8.3-4.9,16.3-9.8,23.3-15.8,8.8-7.4,15.7-15.6,20.5-24.3.9-1.6,1.9-3.2,2.8-4.8,2-3.3,3.9-6.4,5.2-9.6,2.3-5.8,4.2-12,6.2-18,1-3.2,2.1-6.5,3.2-9.8.4-1.3,1-2.4,1.6-3.3.4-.7.8-1.4.9-1.8.3-1.3.7-2.6,1.1-3.9,1.4-5.4,2.8-10.4,3.6-15.6,1.6-10.7,2.8-21.6,3.9-32.2l.6-5.3c.7-6.4,1.5-13.9,1.9-21.6.1-2.1,0-4.3-.3-6.6ZM299,277c-.8-4.4-1.6-8.6-2.1-12.9-.6-5.5-2.6-9.6-6.4-13.1-4.1-3.8-10.4-4.9-16.4-2.9-5.4,1.7-9.2,5.4-10.1,9.9-.7,3.5-.5,7-.3,9.7.5,5.7,1.1,11.4,1.8,16.9.3,2.3.5,4.7.8,7,.4,3.9.8,7.9,1.3,12.2l.6,5.9c-.5,2.9-.9,5.9-1.4,9.1-1.1,7.6-2.3,15.4-4,23.1h0c-4.9,21.3-13.6,38.1-26.8,51.2-7.1,7.1-14,11.6-21.7,14.1-.6.2-1.2.4-1.7.6-4.8,1.5-9.7,3.1-14.3,6.6-3.9,3-6.7,13.2-3.9,18,3.5,6,9,9,16.4,9h0c9,0,16.7-3.2,22.5-5.9,13.5-6.4,25.5-16.6,35.7-30.4,7.7-10.4,13.9-22,19.1-35.5,5.4-14.1,8.4-25.3,9.7-36.3.4-3.3.6-6.6.9-9.8.3-4.3.6-8.4,1.2-12.5,1.6-10.5,1.5-20.2-.2-29.7-.3-1.5-.5-2.9-.8-4.4Z"></path>
</svg>