<svg id="wk-icon__srs-burned" viewBox="0 0 492 512" xmlns="http://www.w3.org/2000/svg">
      <path d="M480.22,253.34c-9.71-124.23-56.65-167.67-58.65-169.45-3.36-3.01-8.01-4.32-12.46-3.51-4.44.81-8.33,3.7-10.4,7.71-.21.41-20.79,39.44-50.18,50.97-5.2-46.98-19.05-80.84-42.28-103.41C281.02,11.14,245.65-.28,194.95-.28c-7.63,0-13.92,5.73-14.62,13.33-4.02,43.42-13.62,54.24-22.9,64.7-13.06,14.71-22.52,28.4-23.91,67.61-5.45-3.62-9.15-8.7-11.03-15.19-6.63-22.93-.3-42.46-.26-42.6,1.66-4.71.83-9.88-2.21-13.84-3.05-3.96-7.84-6.08-12.81-5.68-1.31.11-32.5,2.96-60.68,35.87C11.38,144.98-3.71,212.54,1.69,304.71c2.29,39.08,11.87,73.47,28.46,102.23,15,25.99,35.78,47.54,61.76,64.04,49.81,31.63,107.93,38.27,147.92,38.27,39.99,0,79.53-6.65,108.49-18.23,95.45-38.19,141.05-120.37,131.89-237.67ZM94.28,138.33c11.37,39.31,51.47,41.7,53.17,41.78,4.07.2,8.07-1.32,10.98-4.16,2.91-2.85,4.52-6.81,4.42-10.88-1.22-47.79,6.62-56.63,16.56-67.83,10.71-12.07,22.82-25.71,28.62-67.85,75.33,3.62,106.99,39.88,112.66,128.38.51,7.97,7.41,14.11,15.4,13.73,35.78-1.81,62.66-31.06,76.98-51.11,12.78,20.15,32.15,61.88,37.88,135.24,8.18,104.69-30.01,174.71-113.51,208.11-50.01,20.01-157.62,28.26-229.76-17.56-47.04-29.87-72.83-78.05-76.64-143.19-6.07-103.48,16.55-154.18,36.6-178.5,6.83-8.29,14.38-14.89,22.51-19.69-.37,11.44,1.02,22.69,4.15,33.53ZM242.37,444.82c66.94,0,121.41-61.96,121.41-138.12s-54.46-138.12-121.41-138.12-121.41,61.96-121.41,138.12,54.46,138.12,121.41,138.12ZM148.32,306.7c0-14.27,2.27-28.12,6.76-41.23l37.85,24.35v49.47l-32.54,21.65c-7.91-16.52-12.08-35.18-12.08-54.24ZM231.74,196.65v55.66l-28.3,18.99-39.6-25.47c15.38-27.42,40.37-45.5,67.9-49.19ZM235.66,417.17c-24.8-2.08-47.92-15.73-64.32-37.98l33.11-22.04,31.01,14.65.19,45.37ZM214.19,338.25v-48.56l28.74-19.28,29.2,15.99,1.11,50.19-27.74,16.46-31.31-14.79ZM282.96,355.52l29.64,24.73c-14.6,19.34-34.16,31.93-55.7,35.87l-.19-45.04,26.25-15.57ZM252.99,251.68v-55.04c26.06,3.46,49.5,19.48,65.15,44.56l-36.32,26.27-28.83-15.79ZM293.36,285.36l34.45-24.92c5.71,14.53,8.6,30.07,8.6,46.25,0,19.47-4.34,38.47-12.57,55.25l-29.32-24.46-1.16-52.12Z"></path>
</svg>