<svg id="wk-icon__srs-master" viewBox="0 0 420 512" xmlns="http://www.w3.org/2000/svg">
      <path d="M402.8,130.5l-.6-2c-.9-3.2-1.8-6.5-2.5-9.7-3.5-15.6-10.4-28.6-20.7-38.9-3.1-3.1-6.7-4.6-10.7-4.4-4.8.2-8.6,2.2-12,4.1-.4.2-.8.5-1.2.7-4.9,2.6-9.6,5.7-14.2,8.6-2.4,1.6-5,3.2-7.5,4.7-2.7,1.6-5.5,3.3-8.1,4.8-3.6,2.1-7.3,4.3-11,6.6-2.2,1.4-4.2,2.9-6.2,4.4-1.9,1.4-3.7,2.8-5.6,4-.2,0-.7.2-1.1.1-1.9-1.8-3.7-3.8-5.5-5.7-3.3-3.6-6.7-7.3-10.7-10.3-1.6-1.2-3.2-2.5-4.8-3.8-5.2-4.2-10.5-8.5-17.3-10.9,0,0,0,0,0-.1.2-2.1.5-4.2.8-6.2.4-3,.9-6,1.1-9.1.3-5.5.3-10.7-.3-15.5-.8-7.4-3.7-14.8-9.1-23.1-4.2-6.6-9.8-11.6-14.1-15.3-6.5-5.4-14-7.9-21.2-10-6.7-1.9-14.4-2.3-23.4-1.1-5.4.7-11.6,1.8-17.2,4.3-14.8,6.7-26.1,17.3-33.4,31.4-5.2,10-6.7,20.5-8,29.8-1.1,7.6.5,14.8,2.3,21.5.1.5.2.7.2.9,0,0-.2.1-.3.2-4.3,2.9-9.1,6.2-13.4,10.1-3.4,3.1-6.7,6.5-9.9,9.8-2.1,2.2-4.3,4.4-6.4,6.5,0,0-.1,0-.2,0-2.6-1.8-5.2-3.7-7.8-5.5-2.1-1.5-4.3-3.1-6.5-4.6-3.9-2.7-7.9-5.2-11.7-7.7l-2.2-1.4c-.9-.6-1.8-1.1-2.7-1.6-.8-.5-1.6-.9-2.3-1.4-1.7-1.1-3.3-2.2-5-3.3-3.2-2.1-6.4-4.3-9.8-6.3-4.6-2.7-10-5.7-15.7-8-3-1.2-7.5-2-11-.7-8.8,3.3-13.4,11.1-17.4,18l-.2.4c-7.5,12.9-10.8,27.4-13,39.8-.9,5.3.6,10.6,4.6,15.9,4,5.4,9.3,9.7,16.6,13.8,4,2.2,8.1,4.6,12,6.9,4.1,2.4,8.3,4.9,12.5,7.2,3.8,2.1,7.6,4,11.4,5.9,3.1,1.6,6.3,3.2,9.4,4.9,0,.1.1.3.2.4-.5,2.7-1,5.4-1.6,8-.6,2.7-1.2,5.5-1.6,8.3-.9,5.1-2,11.9-2.6,18.8v.4c-.7,7.4-1.5,15-1.4,22.5,0,7.5,1,15.2,1.9,22.4.6,4.4,1.4,8.8,2.3,13.4,0,.2,0,.5.1.7-.2-.1-.5-.3-.7-.4-6.8-4.3-13.8-8.8-22.6-10.1-4.5-.7-8,0-10.5,1.9-2.4,1.8-3.8,4.8-4.2,8.7l-.4,3.9c-.9,8.2-1.9,16.7-2,25.2-.1,6.9.4,13.8.9,20.5.2,2.3.3,4.5.5,6.8.1,2,.3,4,.4,6,.4,6.9.9,14.1,1.8,21.2.9,7.1,2.4,14.2,3.8,21,.3,1.5.6,3,.9,4.4.3,1.3.5,2.5.7,3.8.8,4.5,1.7,9.1,3.5,13.4,5.4,12.7,11.6,26,20.7,38,2.9,3.9,6.2,7.7,9.6,11.2,3,3.1,6.3,5.9,9.5,8.7l1,.9c.8.7,1.6,1.4,2.4,2.1,2.6,2.3,5.3,4.7,8.4,6.5,2.4,1.3,4.6,2.8,6.9,4.4,4.7,3.2,9.6,6.4,15.4,8.4,3.4,1.1,6.6,2.8,10,4.6,2.9,1.5,5.9,3.1,9,4.4,6.1,2.4,12.4,4.1,18.7,5.1,10.5,1.7,23,3.6,35.5,4.6,3.9.3,7.8.4,11.7.4,7.5,0,14.9-.5,22.1-1.6,6.7-1,13.5-2.2,20-3.4l2.4-.4c6.8-1.2,13.6-3.4,19.3-5.3,5.3-1.8,10.2-4,15.3-6.3,1.5-.7,2.8-1.5,4-2.4,1.4-.9,2.7-1.8,4-2.2,10.6-3.5,19.1-10.1,27.3-16.5l.9-.7c6.8-5.3,12.8-11.6,18.6-17.7,1.4-1.5,2.8-2.9,4.2-4.4,9.2-9.5,14.6-21.2,19.9-32.5l1.2-2.5c3.2-6.7,5.7-13.8,8.1-20.7l.8-2.1c.5-1.4,1-2.9,1.5-4.3,2.3-6.4,4.7-13,6.1-19.8l.7-3.5c2.2-10.3,4.4-20.9,4.4-31.9,0-3.5.4-7,.8-10.7.3-2.7.6-5.5.7-8.3.1-2.6,0-5.2,0-7.7,0-1.9-.2-3.7-.1-5.6,0-1.6.1-3.2.3-4.9.2-2.4.4-4.8.3-7.3-.2-3.5-.6-7-.9-10.3-.3-2.5-.6-5.1-.8-7.7-.4-5.2-1.8-8.7-4.2-10.8-1.8-1.5-4-2.1-6.5-1.8-8.3.9-14.8,4-19.5,9.2-3.2,3.6-6.4,7.4-9.5,11-.6.8-1.3,1.5-1.9,2.3-1.3-2-1.2-3.3-.4-6,1.2-4.2,1.9-7.7,2.3-10.9.7-6.8,1.2-13.8,1.6-20.5l.3-4.5c.3-4,.6-8.2.5-12.3,0-2.3-.4-4.6-.8-6.8-.2-1.5-.5-2.9-.6-4.3-.2-1.7-.2-3.4-.3-5.2-.1-2.7-.2-5.5-.7-8.3-.4-2.8-1.2-5.5-1.9-8-.4-1.3-.7-2.5-1-3.7,1.5-1,2.9-1.9,4.3-2.6,2.7-1.4,5.5-2.7,8.2-4,5.3-2.5,10.7-5.2,15.9-8.2,8.6-5,17.8-10.5,26.3-16.9,9.2-6.9,12.7-16.3,9.9-26.5ZM54.7,113.9l2,1.2c4.7,2.9,9.5,6,14.2,9.1,1.9,1.3,3.7,2.7,5.6,4.2,1.8,1.4,3.6,2.9,5.5,4.2,2,1.4,4.1,2.6,6.1,3.7,1.1.6,2.2,1.2,3.2,1.9.6.4,1.2.8,1.8,1.2-3.6,5-5.7,10.6-7.8,16-1.1,2.9-2.1,5.7-3.4,8.4-.1.3-.2.5-.4.7-.1,0-.3-.2-.4-.3-4.2-2.6-8.6-5-12.9-7.4-5.3-2.9-10.7-6-15.8-9.2-5.4-3.5-10.5-7.7-15.5-11.7-1.4-1.1-2.7-2.2-4.1-3.3,0-.1,0-.3,0-.4l.6-2.5c1.6-6.4,3.2-13,5.1-19.3.4-1.4,1.7-3,2.9-4.5,4.1,2.3,8.4,5,13.2,8ZM180.6,39.2c7-6.2,15.4-9.4,25.2-9.5,5,0,9.9,1.4,14.9,4.5,7.3,4.4,11.9,10.1,14.2,17.4l.2.7c2.2,6.9,4.3,13.5,1.6,19.7l-4.7-.5c-6.5-.7-13-1.4-19.5-2-.4,0-.9-.1-1.3-.2-1.5-.2-3.2-.4-4.9-.2-2.7.3-5.6.6-8.3.9-9.6.9-19.5,1.9-28.9,6.1-.3.2-1.1.5-1.8.7-.2-.7-.3-1.6-.4-2.2-2.4-13.6,2-25.3,13.5-35.5ZM227.1,208.5c2.5,2.6,5.8,6,8.7,9.5,0,0,.3.6.2,2.3-.4,9.5-.9,19.1-1.3,28.4v.8c-.3,4.6-.5,9.2-.8,14-1.4-1.4-2.8-2.9-4.2-4.3-1-.9-1.9-1.8-2.9-2.8-3.4-3.3-7-6.8-11.3-9.1-5.9-3.2-13.2-3.4-20.9-.3-9.9,3.9-17.1,10.7-22.3,17,0-2.6,0-5.2,0-7.9,0-4.5.2-9,.2-13.5,0-4.1.2-8.1.2-12.2,0-1.5,0-3,0-4.5,0-2.6-.1-5,.1-7.4.2-1.9,1.6-3.1,3.9-4.9.7-.6,1.5-1.1,2.2-1.8,7.7-6.9,13.9-12.4,19.6-17.3,2.1-1.9,4.4-3.7,6.6-5.4.5-.4.9-.7,1.4-1.1.4.4.8.7,1.2,1.1l4.6,4.5c4.9,4.8,9.9,9.8,14.8,14.7ZM313.9,246.6c-.7-.6-1.4-1.2-2.1-1.8-6.3-5-14-6.5-19.9-7.2-7.8-.9-14.1,3-19.7,7.3-6.1,4.7-10.6,10.8-14.7,17,.4-7.3.9-14.9,1.4-22.7,0-1.3.2-2.7.3-4,.5-6.8,1-13.9,1.9-20.7,0-.3.8-1.4,3.4-3.1,4-2.6,7.3-5.9,10.4-9,2.3-2.2,4.4-4.3,6.7-6.2,6.1-4.9,12.2-9.8,18.5-15,1.6-1.3,3.3-2.7,5-4.1,7.4,21.1,10.2,43.4,8.8,69.5ZM288.3,151.4c-4.5,3.5-9.1,7.2-13.5,11-3.9,3.3-7.7,6.8-11.4,10.2-1.4,1.3-2.8,2.6-4.3,3.9-1.4,1.2-2.7,2.5-4.1,3.8-3.3,3.1-6.7,6.2-10.2,9.1-.4,0-.9-.2-1.1-.4-5.9-5-11.8-10.2-17.6-15.2-3-2.6-6-5.2-9-7.8-1.7-1.5-2-3.4-2-6.5,0-9.5.1-20.7.4-32.1.1-6.3.4-12.8.6-19,.1-3.3.3-6.6.4-9.9,0-.4,0-.7,0-1.1,31.2,4,55.9,20.7,75.4,51.1-1.2,1-2.5,2-3.7,3ZM191.2,99.2l-.2,3.3c-.3,5.4-.6,10.6-.9,15.7l-.2,3.3c-.3,4.7-.5,9.6-.6,14.5,0,3.8,0,7.7-.1,11.4,0,5.8,0,11.8-.3,17.6,0,.5-.9,1.7-1.5,2.5-.4.5-.8,1.1-1.1,1.6-.6,1-1.4,2-2.3,2.9-1.3,1.4-2.6,2.8-3.9,4.2-4.8,5.2-9.8,10.5-14.9,15.5-1.7,1.7-2.3,1.3-3,.7-8.1-6.3-16.5-12.4-23.7-17.7-5.4-4-10.8-7.8-16.5-11.9-1.7-1.2-3.5-2.5-5.2-3.8.5-.7,1-1.4,1.4-2.1h0c.8-1.2,1.4-2.4,2.1-3.6,1.2-2.1,2.3-4.1,3.6-5.8.9-1.2,1.9-2.4,2.8-3.6,4.5-5.8,9.2-11.8,14.5-17.1,5.9-5.9,12.8-11.2,21.7-16.7,7.4-4.6,14.3-7.6,21.1-9.4,2.3-.6,4.6-1.1,7.1-1.7ZM142.2,209.4c5.4,3.3,7,6.2,6.5,11.5-.5,5.5-.3,11-.2,16.3,0,2.4.1,4.9.1,7.3,0,4.7,0,9.3,0,14.4-.3-.3-.7-.7-1-1-1.1-1-2.2-2.1-3.4-3.3-3.1-3.1-6.4-6.3-10.3-8.5-4.1-2.3-8.5-3.4-12.9-3.4s-7.4.8-11,2.4c-2.9,1.3-5.6,3-8.4,4.6-1,.6-1.7,1.4-2.2,2.1-.2.2-.4.5-.6.7-1.2,1.2-2.4,2.3-3.7,3.6-1.4-24.8,2-48.5,10.6-72.3.7.5,1.3,1,1.9,1.4,3.7,2.7,7.2,5.2,10.7,7.7,1.9,1.4,3.8,2.7,5.7,4.1,5.8,4.2,11.8,8.5,18.1,12.4ZM86.7,312.4c4.3-3.4,8-6.7,10.8-11.7,3.8-6.9,8.5-13.5,13.9-20.7,1.7-2.3,4.2-4.3,6.7-6.2l1-.8c.7-.5,1.1-.9,2.7.4,4.1,3.2,6.8,7.5,9.6,12.1,1.2,1.9,2.4,3.9,3.8,5.8.8,1.1,1.5,2.2,2.3,3.3,3.7,5.3,7.5,10.7,11.9,15.6,3.4,3.7,7.9,5.6,12.7,5.3,5.6-.3,11.1-3.5,14.7-8.6,2.3-3.2,4.6-6.6,6.9-9.8,3.2-4.6,6.5-9.4,9.9-14,2-2.7,4.6-5.1,7.1-7.5l.3-.3c.4-.2,2,.2,3.1,1.5,2.3,2.6,4.7,5.1,6.9,7.6,2.5,2.7,5,5.4,7.5,8.2,2,2.2,3.9,4.5,5.7,6.8,1.3,1.6,2.7,3.3,4.1,4.9,5.3,6.3,18,9.3,26,6.3,9.5-3.6,14.4-11,18.9-19.1.9-1.5,1.7-3.1,2.6-4.6,4.1-7.5,8-14.5,14.3-19.9.3-.3.5-.4.6-.4.3.2.9.7,1.2,1.1.4.4.7.7,1.1,1,7.2,5.9,12.1,13.6,17.3,21.7l.7,1.1c4,6.3,9.9,11.5,15.6,16.1,5.8,4.7,13,4.9,21.5.5,2-1,3.9-2.4,5.6-3.7-.1,1.6-.2,3.1-.3,4.7-.6,8.2-1.2,16.7-2.3,25-.7,5.8-2,11.6-3.2,17.3-.5,2.3-1,4.6-1.5,6.9l-.4,2.1c-.8,4.2-1.7,8.6-2.8,12.8-.3,1.2-.9,2.5-1.5,3.8-.5,1.1-1,2.2-1.4,3.4-1.3,3.8-2.6,7.7-3.9,11.5-1.5,4.4-3,8.9-4.5,13.3l-.3,1c-.8,2.4-1.6,4.7-2.8,6.5-1.3,1.9-2.5,3.8-3.7,5.7-4.7,7.2-9.1,14.1-15,20-7.6,7.7-16.6,13.8-25.2,19.6-3.9,2.7-8.4,4.6-13.1,6.6-2.1.9-4.3,1.8-6.4,2.9-1.1.5-2.1,1.1-3.1,1.6-2,1.1-3.8,2.1-5.6,2.4-2.9.5-5.5,1.4-8,2.3-2.1.7-4,1.4-6.1,1.8-1.9.4-3.9.9-5.7,1.3-3.2.8-6.1,1.5-9.2,1.9-3.7.5-7.6.7-11.3.9-1.8,0-3.5.2-5.3.3-2.8.2-5.6.4-8.3.6l-2.4.2c-5.7.4-13.1.7-20.5-.8l-4.2-.9c-6.3-1.3-12.8-2.6-19.2-4.1-2.3-.5-4.6-1.3-7-2.2-1-.4-2-.7-3-1-1-.3-2-.7-3.1-1-2.6-.8-5-1.6-7.3-2.6-3.3-1.4-6.5-3.1-9.7-4.7-.8-.4-1.6-.8-2.4-1.2-.9-.4-1.8-.9-2.7-1.3-2.3-1.1-4.4-2.1-6.2-3.5-5.3-4.2-10.5-8.7-15.5-13.1l-2.7-2.3c-.9-.8-1.8-1.7-2.7-2.7-.8-.8-1.6-1.7-2.4-2.5-7.3-6.8-12.8-14.7-16.4-23.4-4.7-11.3-10-24.8-13.7-38.6-2-7.2-2.5-15.2-3-22.8-.1-1.9-.3-3.7-.4-5.6-.5-6.7-.7-13.6-.8-20.3,0-1.9,0-3.9-.1-5.8,0-2.2,0-4.8.2-7.3,1.3.4,2.6.8,4,1.3,2.5.9,5.1,1.8,7.9,2.2,6.6.9,12.7-.7,17.4-4.5ZM330.4,162.5c-3.2-8.3-5.9-14.7-8.6-20.6-.8-1.6-2-2.9-3.2-4.1,1.4-1,2.7-1.9,4.1-2.9,5.1-3.6,9.9-7,14.7-10.3,6.6-4.4,13.2-8.6,20.5-13.3,3.4-2.2,6.4-3.9,9.3-5.4,1.9,3.5,3.8,7.2,5,10.9,1.4,4.3,2.4,8.8,3.3,13.2l.4,2.1c0,.1,0,.4,0,.5-1.2,1-2.5,2-3.7,3-4.9,4-10,8.2-15.3,11.6-4.6,3-9.7,5.7-14.6,8.3-2.4,1.3-5,2.6-7.4,4-1.6.9-3.1,1.9-4.5,2.8Z"></path>
</svg>